<?xml version="1.0" standalone="no"?>
<!DOCTYPE svg PUBLIC "-//W3C//DTD SVG 20010904//EN"
 "http://www.w3.org/TR/2001/REC-SVG-20010904/DTD/svg10.dtd">
<svg version="1.0" xmlns="http://www.w3.org/2000/svg"
 width="500.000000pt" height="500.000000pt" viewBox="0 0 500.000000 500.000000"
 preserveAspectRatio="xMidYMid meet">
<metadata>
Created by potrace 1.11, written by Peter Selinger 2001-2013
</metadata>
<g transform="translate(0.000000,500.000000) scale(0.100000,-0.100000)"
fill="#000000" stroke="none">
<path d="M0 2500 l0 -2500 2500 0 2500 0 0 2500 0 2500 -2500 0 -2500 0 0
-2500z m2492 1199 c26 -35 19 -50 -108 -220 -246 -329 -343 -497 -694 -1204
-267 -538 -308 -608 -371 -640 -37 -20 -94 -19 -129 2 -96 56 -112 278 -46
633 13 69 22 126 21 128 -5 6 -146 -220 -295 -471 -176 -297 -214 -346 -278
-354 -87 -12 -122 33 -122 155 0 230 110 596 385 1281 68 172 145 372 170 444
26 73 52 139 58 147 37 48 110 65 141 34 50 -49 1 -204 -234 -749 -143 -331
-287 -763 -329 -990 l-9 -49 19 24 c55 71 154 225 319 495 220 360 323 520
358 558 67 71 162 78 162 12 0 -12 -23 -77 -50 -146 -75 -183 -117 -321 -145
-472 -30 -163 -40 -299 -30 -393 l7 -69 23 28 c39 50 99 165 239 462 274 578
437 864 673 1180 114 152 172 207 215 203 19 -2 38 -13 50 -29z m1317 -23 c30
-28 27 -71 -8 -107 -28 -27 -34 -29 -113 -29 -158 0 -484 -35 -594 -64 -38
-10 -49 -17 -47 -31 2 -25 -2 -32 -142 -245 -139 -212 -198 -310 -191 -318 3
-3 79 7 168 23 90 15 209 30 266 33 97 5 104 4 127 -18 30 -28 32 -69 7 -100
-17 -21 -34 -24 -163 -36 -314 -29 -500 -66 -531 -106 -23 -30 -195 -368 -247
-485 -38 -86 -104 -263 -98 -263 2 0 57 18 122 40 186 63 307 90 436 97 175 9
229 -9 229 -77 0 -47 -30 -70 -94 -70 -30 0 -108 -7 -173 -15 -193 -26 -340
-69 -503 -149 -116 -56 -141 -57 -186 -12 -47 47 -45 85 12 238 147 396 338
768 618 1202 78 122 146 227 150 234 5 8 -2 20 -18 33 -34 27 -36 80 -3 113
46 45 241 85 637 130 19 2 99 3 176 2 125 -1 145 -3 163 -20z m707 -21 c199
-59 271 -234 177 -433 -64 -137 -257 -278 -509 -376 l-82 -32 68 -33 c122 -58
213 -173 241 -302 15 -67 5 -188 -21 -271 -63 -202 -252 -402 -459 -487 -173
-72 -349 -80 -516 -23 -49 16 -93 28 -96 26 -4 -2 -10 -19 -13 -37 -8 -41 -39
-77 -68 -77 -11 0 -36 16 -54 36 -59 62 -50 112 76 424 131 326 309 657 596
1113 79 125 144 230 144 233 0 9 -38 -5 -153 -57 -60 -27 -117 -49 -127 -49
-27 0 -50 38 -50 82 0 30 6 42 34 63 71 54 363 167 511 199 92 19 238 20 301
1z"/>
<path d="M4315 3510 c-27 -5 -69 -14 -91 -20 -41 -12 -41 -12 -37 -54 5 -39
-2 -51 -151 -277 -86 -130 -156 -239 -156 -244 0 -12 72 3 172 36 188 63 392
185 472 282 36 44 66 112 66 149 0 39 -32 89 -70 108 -44 23 -137 32 -205 20z"/>
<path d="M3747 2694 c-103 -165 -249 -467 -332 -689 l-53 -140 27 -15 c115
-70 334 -62 496 19 254 126 442 502 345 691 -57 110 -177 161 -328 139 -80
-12 -83 -12 -106 10 l-24 23 -25 -38z"/>
</g>
</svg>
